
<svg xmlns="http://www.w3.org/2000/svg" version="1.1" xmlns:xlink="http://www.w3.org/1999/xlink" preserveAspectRatio="none" x="0px" y="0px" width="300px" height="300px" viewBox="0 0 300 300">
<defs>
<g id="Layer0_0_FILL">
<path fill="#FFFFFF" stroke="none" d="
M 256.2 159
L 250.6 159 250.6 178.35 256.2 178.35 256.2 159
M 253.4 156.95
Q 254.85 156.95 255.85 155.95 256.85 154.95 256.85 153.5 256.85 152.05 255.85 151 254.85 150 253.4 150 251.95 150 250.95 151 250 152.05 250 153.5 250 154.95 250.95 155.95 251.95 156.95 253.4 156.95
M 264.5 159.9
L 264.5 159 258.9 159 258.9 178.35 264.5 178.35 264.5 165.95 265.9 165 267.35 164.6
Q 268.15 164.5 269 164.95 269.35 165.05 269.65 165.6
L 269.95 166.55 269.95 178.35 275.45 178.35 275.45 166.55
Q 275.45 164.65 274.45 162.85 273.4 161.05 271.7 160.1 270.1 159.3 268.1 159.2 266.1 159.1 264.5 159.9
M 265.85 104.5
L 265.85 100 261 102.7 259.3 101.85
Q 258.45 101.55 257.45 101.55 256.1 101.55 254.9 102.1 253.65 102.6 252.75 103.55 251.85 104.45 251.35 105.7 250.8 106.9 250.8 108.3 250.8 109.9 251.5 111.2 252.2 112.55 253.35 113.5 252.7 114.8 252.7 116.4 252.7 117.75 253.25 119 251.75 119.85 250.85 121.15 250 122.45 250 124.05 250 125.35 250.65 126.5 251.25 127.65 252.35 128.5 253.45 129.35 254.95 129.85 256.4 130.35 258.1 130.35 259.8 130.35 261.25 129.85 262.75 129.35 263.85 128.5 264.95 127.65 265.55 126.5 266.2 125.35 266.2 124.05 266.2 122.75 265.55 121.6 264.95 120.45 263.85 119.6 262.75 118.75 261.25 118.25 259.8 117.75 258.1 117.75
L 257.45 117.75 257.2 116.4 257.25 115.55
Q 257.3 115.2 257.45 115.05
L 257.65 115.05
Q 259.05 115.05 260.25 114.5 261.5 114 262.4 113.05 263.35 112.15 263.9 110.95 264.4 109.7 264.4 108.3
L 264.15 106.85 263.5 105.75 265.85 104.5
M 255.4 110.55
Q 254.5 109.65 254.5 108.3 254.5 107 255.4 106.05 256.35 105.15 257.65 105.15 258.95 105.15 259.9 106.05 260.8 107 260.8 108.3 260.8 109.65 259.9 110.55 258.95 111.45 257.65 111.45 256.35 111.45 255.4 110.55
M 255.55 122.35
Q 256.6 121.6 258.1 121.6 259.6 121.6 260.65 122.35 261.7 123.05 261.7 124.05 261.7 125.05 260.65 125.75 259.6 126.45 258.1 126.45 256.6 126.45 255.55 125.75 254.5 125.05 254.5 124.05 254.5 123.05 255.55 122.35
M 273.45 106.75
L 273.45 102.2 272.15 102.2 272.15 106.75 267.6 106.75 267.6 108.05 272.15 108.05 272.15 112.6 273.45 112.6 273.45 108.05 278 108.05 278 106.75 273.45 106.75
M 276.7 51.35
L 274.7 51.9
Q 273.85 51.05 272.75 50.5 271.65 50 270.3 50 269.05 50 267.95 50.45 266.9 50.95 266.05 51.75 265.25 52.6 264.8 53.7 264.3 54.85 264.3 56.1
L 264.45 57.4
Q 262.6 57.35 260.85 56.85 259.1 56.4 257.5 55.55 254.3 53.9 252.05 51.1 251.25 52.55 251.25 54.15 251.25 55.75 251.95 57.05 252.65 58.35 253.95 59.15
L 252.4 58.95 251.15 58.45 251.15 58.5
Q 251.15 59.6 251.5 60.55 251.85 61.5 252.5 62.35 253.9 63.95 256 64.4
L 255.25 64.55 254.4 64.6 253.3 64.45
Q 253.85 66.25 255.4 67.4 256.9 68.6 258.9 68.65 255.75 71.2 251.45 71.2
L 250 71.15
Q 252.05 72.45 254.35 73.2 256.7 73.9 259.25 73.9 263.4 73.9 266.6 72.35 268.15 71.55 269.5 70.55 270.85 69.55 271.95 68.3 274.1 65.85 275.2 62.8 276.35 59.7 276.35 56.7
L 276.35 56
Q 278.15 54.6 279.35 52.85
L 277.7 53.45 275.9 53.8
Q 277.75 52.6 278.55 50.5
L 276.7 51.35
M 266.4 16.4
L 266.4 10.55 260.55 10.55 260.55 7.55
Q 260.55 6.8 260.95 6.25 261.3 5.75 261.7 5.75
L 266.4 5.75 266.4 0 261.7 0
Q 260.25 0 259 0.6 257.7 1.2 256.75 2.25 255.8 3.25 255.25 4.65 254.7 6.05 254.7 7.65
L 254.7 10.55 250 10.55 250 16.4 254.7 16.4 254.7 30.6 260.55 30.6 260.55 16.4 266.4 16.4 Z"/>
</g>

<g id="Layer0_1_FILL">
<path fill="#B2B2B2" stroke="none" d="
M 67.35 51.8
Q 67.15 51.4 66.85 51.15 65.75 50 64.15 50 62.5 50 61.4 51.15 60.25 52.3 60.25 53.9 60.25 54.65 60.5 55.3
L 56.5 58.4
Q 55.4 57.4 53.85 57.4 52.3 57.4 51.1 58.55 50 59.7 50 61.3 50 62.9 51.1 64.1 52.3 65.2 53.85 65.2 55.45 65.2 56.55 64.1
L 60.35 66
Q 60.25 66.45 60.25 66.95 60.25 68.6 61.4 69.7 62.5 70.85 64.15 70.85 65.75 70.85 66.85 69.7 68 68.6 68 66.95 68 65.75 67.35 64.85 67.15 64.55 66.85 64.2 65.75 63.1 64.15 63.1 62.5 63.1 61.4 64.2 61.25 64.35 61.15 64.5
L 57.55 62.65
Q 57.8 62 57.8 61.3 57.8 60.5 57.5 59.85
L 61.5 56.8
Q 62.6 57.75 64.15 57.75 65.75 57.75 66.85 56.65 68 55.5 68 53.9 68 52.7 67.35 51.8 Z"/>
</g>

<g id="Layer0_2_FILL">
<path fill="#B2B2B2" stroke="none" d="
M 55.45 136.25
Q 54.85 136.5 54.6 137.1 54.35 137.75 54.6 138.35
L 57.8 145.65
Q 58.05 146.3 58.65 146.55 59.25 146.75 59.9 146.5
L 73.05 140.8
Q 73.65 140.5 73.9 139.9 74.15 139.25 73.9 138.65
L 70.7 131.35
Q 70.45 130.75 69.85 130.5 69.2 130.25 68.6 130.55
L 55.45 136.25
M 57.9 139.95
Q 57.75 139.6 58.1 139.45
L 69.1 134.65
Q 69.5 134.5 69.65 134.9 69.8 135.3 69.45 135.4
L 58.45 140.15
Q 58.05 140.35 57.9 139.95
M 58.55 141.4
Q 58.4 141.05 58.75 140.9
L 62.4 139.3
Q 62.8 139.15 62.95 139.5 63.1 139.9 62.75 140.05
L 59.05 141.6
Q 58.7 141.8 58.55 141.4
M 70.1 136.85
L 64.95 139.05
Q 64.6 139.25 64.4 138.85 64.25 138.5 64.6 138.35
L 69.75 136.1
Q 70.1 136 70.3 136.3 70.45 136.7 70.1 136.85
M 59.3 125.05
Q 58.65 125.2 58.3 125.7
L 50.25 137.6
Q 49.9 138.15 50 138.85 50.2 139.45 50.7 139.85
L 55.9 143.35 53.9 138.65
Q 53.5 137.8 53.85 136.85 54.25 135.9 55.1 135.5
L 57.1 134.7 60.95 128.95
Q 61.15 128.6 61.5 128.8 61.85 129.1 61.6 129.4
L 58.45 134.1 59.8 133.5 62.25 129.8
Q 62.45 129.55 62.8 129.75 63.15 130 62.95 130.25
L 61.15 132.9 67.55 130.15 67.15 129.75 60.5 125.25
Q 60 124.9 59.3 125.05 Z"/>
</g>

<g id="Layer0_3_FILL">
<path fill="#B2B2B2" stroke="none" d="
M 67.05 17.65
Q 70 14.75 70 10.6 70 6.45 67.05 3.5 64.15 0.6 60 0.6 55.85 0.6 52.9 3.5 50 6.45 50 10.6 50 14.75 52.9 17.65 55.85 20.6 60 20.6 64.15 20.6 67.05 17.65 Z"/>
</g>

<g id="Layer0_3_MEMBER_0_FILL">
<path fill="#FFFFFF" stroke="none" d="
M 62 14.45
L 61.55 14.2 60.8 15.25
Q 60.35 15.8 60.05 15.8
L 59.8 15.7
Q 59.7 15.65 59.7 15.45
L 61.7 7.8 57.7 8.35 57.7 8.85
Q 58.35 8.9 58.65 9 58.9 9.1 58.9 9.5
L 58.85 9.65 58.85 9.8 57.4 15.1 57.3 15.85
Q 57.3 16.55 57.7 16.9 58.15 17.2 58.7 17.2 59.65 17.2 60.5 16.4 61.05 15.9 62 14.45
M 62.5 4.65
Q 62.5 4.1 62.1 3.7 61.7 3.35 61.15 3.35 60.6 3.35 60.2 3.7 59.8 4.1 59.8 4.65 59.8 5.2 60.2 5.6 60.6 6 61.15 6 61.7 6 62.1 5.6 62.5 5.2 62.5 4.65 Z"/>
</g>

<g id="Layer0_3_MEMBER_1_MEMBER_0_FILL">
<path fill="#FFFFFF" stroke="none" d="
M 14.9 178.1
Q 14.25 176.7 12.95 175.85 11.6 175 10.05 175 7.8 175 6.2 176.55 4.65 178.15 4.65 180.4
L 4.65 181.2
Q 2.7 181.5 1.35 183 0 184.55 0 186.55 0 188.8 1.6 190.4 3.15 192 5.4 192
L 15.25 191.9
Q 17.85 191.65 19.55 189.95 21.6 187.9 21.6 185.05 21.6 182.2 19.65 180.15 17.7 178.15 14.9 178.1
M 13.8 179.65
L 14.65 179.6
Q 16.9 179.6 18.5 181.2 20.05 182.8 20.05 185.05 20.05 187.25 18.5 188.85 17.2 190.15 14.9 190.4
L 5.4 190.45
Q 3.8 190.45 2.65 189.3 1.55 188.15 1.55 186.55 1.55 184.95 2.65 183.85 3.8 182.7 5.4 182.7 6.7 182.7 7.7 183.5
L 7.7 183.45
Q 6.15 182.35 6.15 180.4 6.15 178.75 7.3 177.65 8.4 176.55 10.05 176.55 11.4 176.55 12.5 177.4 13.55 178.3 13.8 179.65 Z"/>

<path fill="#FFFFFF" fill-opacity="0.5019607843137255" stroke="none" d="
M 14.65 179.6
L 13.8 179.65
Q 13.55 178.3 12.5 177.4 11.4 176.55 10.05 176.55 8.4 176.55 7.3 177.65 6.15 178.75 6.15 180.4 6.15 182.35 7.7 183.45
L 7.7 183.5
Q 6.7 182.7 5.4 182.7 3.8 182.7 2.65 183.85 1.55 184.95 1.55 186.55 1.55 188.15 2.65 189.3 3.8 190.45 5.4 190.45
L 14.9 190.4
Q 17.2 190.15 18.5 188.85 20.05 187.25 20.05 185.05 20.05 182.8 18.5 181.2 16.9 179.6 14.65 179.6 Z"/>
</g>

<g id="Layer0_4_FILL">
<path fill="#B2B2B2" stroke="none" d="
M 57.45 89.9
Q 58.2 90 59 90 62.75 90 65.35 87.8 68 85.65 68 82.5 68 79.3 65.35 77.15 62.75 75 59 75 55.25 75 52.6 77.15 50 79.3 50 82.5 50 85.65 52.6 87.8 52.8 87.95 53 88.1
L 53 93 57.45 89.9 Z"/>
</g>

<g id="Layer0_5_FILL">
<path fill="#B2B2B2" stroke="none" d="
M 60 25
Q 55.85 25 52.9 27.9 50 30.85 50 35 50 39.15 52.9 42.05 55.85 45 60 45 64.15 45 67.05 42.05 70 39.15 70 35 70 30.85 67.05 27.9 64.15 25 60 25
M 57.55 29.1
L 57 29.35
Q 56.65 29.5 56.3 29.3 55.9 28.95 55.7 28.8 54.9 28.45 54.5 28.4 56.85 26.4 60 26.4 61.5 26.4 62.75 26.9 62.3 27.85 62.3 28.05 62.3 28.3 62.7 28.6 62.9 28.8 63.25 29 63.3 29.05 63.2 29.7 63.15 30.3 63.6 30.55 64.4 30.9 65.3 29.65 65.4 29.55 65.55 29.45 65.9 29.3 66.3 29.25 67 29.95 67.45 30.8 64.55 31.4 64.95 33.6 65.25 35 66.5 36 67.3 36.6 68.3 36.95 67.65 39.65 65.55 41.5 63.4 43.3 60.65 43.55 60.35 43.15 60.4 42.8 60.45 42.3 61.6 40.9 62.3 40.05 62.65 39.4 63.4 38.2 62.8 37.9 62.75 37.85 62.65 37.8 62.3 37.6 61.75 37.15 60.95 36.6 60.7 36.4 59.9 35.95 59.35 35.9 58.65 35.95 58.3 35.9 57.55 35.85 57.4 35.45 57.35 35.2 57.4 34.7
L 56.75 34.9
Q 56.35 35.05 56.3 34.8 56.3 34.6 56.4 34.3 56.7 33.5 57.55 33.8 58.3 34.15 58.55 34.2 58.5 34.05 58.65 33.65 58.9 33.05 59.1 32.8 59.45 32.4 60 32.2 60.95 31.85 61 31.85
L 60.65 31.35
Q 61.1 31.35 61.3 31.3
L 61.15 31.6
Q 61.95 31.65 61.8 31.15 61.45 30.55 61.4 30.15 61.1 30.3 61 30.1 60.8 29.9 60.55 29.9 60.4 29.9 60.1 30.45 59.75 31.05 59.35 31.15 59.3 30.9 59 30.65 58.65 30.45 58.45 30.3 58.6 30.1 59.1 29.85
L 59.95 29.4
Q 60.1 29.4 60.15 29.1 60.15 28.85 60.05 28.75 59.85 28.6 59.6 28.7 59.3 28.8 59.4 29.05
L 58.9 29.05
Q 58.45 28.8 58.2 28.8 57.95 28.8 57.55 29.1
M 54.45 33.15
Q 54.25 34.65 55.05 34.55
L 54.9 34.1 55.75 35.25
Q 55.95 35.4 56.45 35.55 56.95 35.7 57.15 35.85 57.75 36.2 57.95 36.4 58.05 36.5 58.05 36.65 58 36.9 57.75 37.3 57.7 37.5 57.9 38.1 58.05 38.65 58.65 39.5 59.1 40.15 59.2 41 59.35 42.9 60.05 43.55
L 60 43.55
Q 56.4 43.55 53.9 41.05 51.4 38.55 51.4 35 51.4 32.15 53.05 30 54.3 30.15 54.75 31.3 54.8 31.5 54.45 33.15 Z"/>
</g>

<g id="Layer0_6_FILL">
<path fill="#B2B2B2" stroke="none" d="
M 68.55 112.45
Q 68.1 112 67.5 112
L 51.5 112
Q 50.85 112 50.45 112.45 50 112.85 50 113.5 50 114.1 50.45 114.55 50.85 115 51.5 115
L 67.5 115
Q 68.1 115 68.55 114.55 69 114.1 69 113.5 69 112.85 68.55 112.45
M 68.55 102.55
Q 69 102.1 69 101.5 69 100.85 68.55 100.45 68.1 100 67.5 100
L 51.5 100
Q 50.85 100 50.45 100.45 50 100.85 50 101.5 50 102.1 50.45 102.55 50.85 103 51.5 103
L 67.5 103
Q 68.1 103 68.55 102.55
M 68.55 108.55
Q 69 108.1 69 107.5 69 106.85 68.55 106.45 68.1 106 67.5 106
L 51.5 106
Q 50.85 106 50.45 106.45 50 106.85 50 107.5 50 108.1 50.45 108.55 50.85 109 51.5 109
L 67.5 109
Q 68.1 109 68.55 108.55 Z"/>
</g>

<g id="Layer0_7_FILL">
<path fill="#FFFFFF" stroke="none" d="
M 4 106
L 0 106 6 112 12 106 8 106 8 100 4 100 4 106 Z"/>
</g>

<g id="Layer0_8_MEMBER_0_FILL">
<path fill="#FFFFFF" stroke="none" d="
M 14.9 128.1
Q 14.25 126.7 12.95 125.85 11.6 125 10.05 125 7.8 125 6.2 126.55 4.65 128.15 4.65 130.4
L 4.65 131.2
Q 2.7 131.5 1.35 133 0 134.55 0 136.55 0 138.8 1.6 140.4 3.15 142 5.4 142
L 5.95 142 5.95 140.45 5.4 140.45
Q 3.8 140.45 2.65 139.3 1.55 138.15 1.55 136.55 1.55 134.95 2.65 133.85 3.8 132.7 5.4 132.7 6.7 132.7 7.7 133.5
L 7.7 133.45
Q 6.15 132.35 6.15 130.4 6.15 128.75 7.3 127.65 8.4 126.55 10.05 126.55 11.4 126.55 12.5 127.4 13.55 128.3 13.8 129.65
L 14.65 129.6
Q 16.9 129.6 18.5 131.2 20.05 132.8 20.05 135.05 20.05 137.25 18.5 138.85 17.2 140.15 15.5 140.4
L 15.5 141.95
Q 17.85 141.65 19.55 139.95 21.6 137.9 21.6 135.05 21.6 132.2 19.65 130.15 17.7 128.15 14.9 128.1 Z"/>
</g>

<g id="Layer0_8_MEMBER_0_MEMBER_0_MEMBER_0_FILL">
<path fill="#FFFFFF" stroke="none" d="
M 12.45 137.7
L 15.55 137.7 10.9 133.05 6.3 137.7 9.35 137.7 9.35 142.3 12.45 142.3 12.45 137.7 Z"/>
</g>

<g id="Layer0_9_FILL">
<path fill="#FFFFFF" fill-opacity="0.9490196078431372" stroke="none" d="
M 8 154
L 4 150 0 154 8 154 Z"/>
</g>

<g id="Layer0_10_FILL">
<path fill="#FFFFFF" stroke="none" d="
M 12.7 10.5
Q 13.75 8.75 13.75 6.85 13.75 4 11.75 2 9.7 0 6.9 0 4 0 2.05 2 0 4 0 6.85 0 9.7 2.05 11.75 4 13.75 6.9 13.75 8.75 13.75 10.55 12.7 10.7 12.6 10.85 12.6 11 12.6 11.15 12.75
L 15.05 16.7
Q 15.4 17.05 15.9 17.05 16.35 17.05 16.7 16.75
L 16.7 16.7
Q 17 16.35 17 15.9 17 15.4 16.7 15.05
L 12.75 11.1
Q 12.6 10.95 12.6 10.8 12.6 10.65 12.7 10.5
M 10.7 3.05
Q 12.3 4.6 12.3 6.85 12.3 9.15 10.7 10.7 9.15 12.3 6.9 12.3 4.65 12.3 3.05 10.7 1.45 9.15 1.45 6.85 1.45 4.6 3.05 3.05 4.65 1.45 6.9 1.45 9.15 1.45 10.7 3.05
M 6.9 4.1
Q 6.55 4.1 6.55 4.4
L 6.55 6.05
Q 6.55 6.25 6.4 6.4 6.25 6.55 6.05 6.55
L 4.45 6.55
Q 4.1 6.55 4.1 6.85 4.1 7.2 4.45 7.2
L 6.05 7.2
Q 6.25 7.2 6.4 7.35 6.55 7.5 6.55 7.7
L 6.55 9.35
Q 6.55 9.65 6.9 9.65 7 9.65 7.1 9.55 7.2 9.45 7.2 9.35
L 7.2 7.7
Q 7.2 7.5 7.35 7.35 7.5 7.2 7.7 7.2
L 9.35 7.2
Q 9.45 7.2 9.55 7.1 9.65 7 9.65 6.85 9.65 6.55 9.35 6.55
L 7.7 6.55
Q 7.5 6.55 7.35 6.4 7.2 6.25 7.2 6.05
L 7.2 4.4
Q 7.2 4.1 6.9 4.1 Z"/>
</g>

<g id="Layer0_11_FILL">
<path fill="#FFFFFF" stroke="none" d="
M 12.75 35.5
Q 13.8 33.75 13.8 31.85 13.8 29 11.75 27 9.75 25 6.9 25 4 25 2.05 27 0 29 0 31.85 0 34.7 2.05 36.75 4 38.75 6.9 38.75 8.75 38.75 10.55 37.7 10.7 37.6 10.85 37.6 11 37.6 11.15 37.75
L 15.15 41.75
Q 15.45 42.05 15.9 42.05 16.35 42.05 16.7 41.75
L 16.7 41.7
Q 17 41.35 17 40.9 17 40.4 16.7 40.05
L 12.8 36.1
Q 12.65 35.95 12.65 35.8 12.65 35.65 12.75 35.5
M 10.75 28.05
Q 12.3 29.6 12.3 31.85 12.3 34.15 10.75 35.7 9.15 37.3 6.9 37.3 4.65 37.3 3.05 35.7 1.5 34.15 1.5 31.85 1.5 29.6 3.05 28.05 4.65 26.45 6.9 26.45 9.15 26.45 10.75 28.05
M 4.45 31.55
Q 4.1 31.55 4.1 31.85 4.1 32.2 4.45 32.2
L 9.35 32.2
Q 9.5 32.2 9.6 32.1 9.7 32 9.7 31.85 9.7 31.55 9.35 31.55
L 4.45 31.55 Z"/>
</g>

<g id="Layer0_12_MEMBER_0_FILL">
<path fill="#FFFFFF" stroke="none" d="
M 6 290
L 6 288 3 290.5 6 293 6 291 14 291 14 293 17 290.5 14 288 14 290 6 290 Z"/>
</g>

<g id="Layer0_12_MEMBER_1_FILL">
<path fill="#FFFFFF" stroke="none" d="
M 19 284
L 1 284 1 297 2 297 2 285 18 285 18 297 19 297 19 284 Z"/>
</g>

<g id="Layer0_13_MEMBER_0_FILL">
<path fill="#FFFFFF" stroke="none" d="
M 822.7 979.4
Q 822.1 978.85 821.35 978.85
L 807.2 978.85
Q 806.35 978.85 805.85 979.4 805.25 980 805.25 980.75
L 805.25 986.55 809.1 986.55 809.1 990.4 819.4 990.4 819.4 986.55 823.25 986.55 823.25 980.75
Q 823.25 980 822.7 979.4
M 819.1 980.75
Q 819.1 979.8 820.05 979.8 820.45 979.8 820.75 980.1 821 980.4 821 980.75 821 981.75 820.05 981.75 819.1 981.75 819.1 980.75
M 810.4 989.1
L 810.4 983.95 818.1 983.95 818.1 989.1 810.4 989.1
M 819.4 977.55
L 819.4 975 809.1 975 809.1 977.55 819.4 977.55 Z"/>
</g>

<g id="Layer0_14_FILL">
<path fill="#FFFFFF" stroke="none" d="
M 173.4 7.6
Q 173.8 7.4 173.85 7 173.9 6.65 173.6 6.35
L 172.45 5.2 173 5.8 167.6 0.4 167.45 0.25
Q 167.1875 0.075 166.85 0 166.825 -0.0025390625 166.8 0 166.330078125 -0.0400390625 165.95 0.15
L 159.9 3.5 159.85 3.5
Q 159.805078125 3.55859375 159.75 3.6
L 159.7 3.6 159.7 3.6
Q 159.6556640625 3.6708984375 159.6 3.7
L 161.35 0.55
Q 161.55 0.2 161.45 0.05 161.3 -0.05 160.95 0.15
L 154.9 3.45
Q 154.59921875 3.6380859375 154.3 3.9
L 154.1 4.1
Q 153.65 4.55 153.45 4.9
L 150.15 10.95
Q 149.9 11.35 150.05 11.45 150.15 11.55 150.55 11.35
L 155.2 8.8 152.65 13.45
Q 152.58359375 13.5828125 152.55 13.7 152.48671875 13.9333984375 152.5 14.15 152.494140625 14.225390625 152.5 14.25
L 152.5 14.35
Q 152.5837890625 14.76875 152.8 15.05 152.8283203125 15.0740234375 152.85 15.1
L 151.55 15.8 152.55 15.3 150.35 16.5
Q 150.1375 16.6875 150.1 16.95
L 150.1 17
Q 150.09453125 17.03828125 150.1 17.05 150.0828125 17.3828125 150.35 17.65
L 151.45 18.75 150.9 18.15 156.35 23.6 156.6 23.8
Q 156.8318359375 23.936328125 157.15 24 157.6 24.05 158 23.85
L 164.05 20.5
Q 164.25 20.4 164.35 20.25
L 164.45 20.05
Q 164.45 19.9951171875 164.45 19.95
L 164.45 19.9
Q 164.455078125 19.8611328125 164.45 19.8 164.451953125 19.5134765625 164.2 19.25
L 162.15 17.2 163.4 14.9
Q 163.65 14.5 163.55 14
L 163.55 13.95
Q 163.490625 13.55234375 163.3 13.35
L 166.55 16.55
Q 166.2 16.9439453125 166 17.25
L 163.25 22.3 163.6 21.65 162.6 23.45
Q 162.4 23.8 162.5 23.95 162.555078125 23.98671875 162.6 23.95 162.7703125 23.98984375 163.05 23.85
L 169.1 20.5
Q 169.45 20.3 169.9 19.9 170.3 19.45 170.5 19.1
L 173.85 13.05
Q 174.05 12.65 173.95 12.55 173.917578125 12.528515625 173.85 12.5 173.75 12.425 173.4 12.6
L 168.75 15.15 171.3 10.55
Q 171.55 10.15 171.45 9.65 171.4 9.2 171.1 8.9
L 172.4 8.15 171.4 8.7 173.4 7.6
M 159.45 4
L 159.45 4.05
Q 159.4 4.4 159.7 4.75
L 161.8 6.85 160.55 9.15
Q 160.35 9.5 160.4 10 160.45 10.4 160.7 10.7
L 157.4 7.4
Q 157.682421875 7.130859375 157.85 6.85
L 157.95 6.7
Q 157.9814453125 6.682421875 158 6.65
L 159.45 4 Z"/>
</g>

<g id="Layer0_15_FILL">
<path fill="#666666" stroke="none" d="
M 119.2 252
Q 118.8 252 118.35 252.15 117.85 252.3 117.5 252.55 117.2 252.7 117 252.95 116.8 253.25 116.6 253.25 115.95 253.3 115.6 253.85 115.4 254.2 115.15 254.95 114.85 255.7 114.95 256.2
L 115.2 258.8 115.35 259.25
Q 115.4 259.6 115.1 259.6 115.05 259.8 115.1 260.45 115.15 261.1 115.25 261.4 115.3 261.55 115.4 262.2 115.5 262.7 115.6 262.85 115.65 262.9 116.1 263 116.2 263.05 116.2 263.1 116.2 263.2 116.25 263.45 116.4 263.9 116.5 264.9 116.65 265.35 116.9 265.5 117.15 265.65 117.2 265.85 117.25 266.25 117.1 266.25
L 116.55 266.35
Q 116.45 266.4 116.05 267.2 115.7 267.85 115.5 268 113.95 268.6 113.2 268.9
L 110.45 269.95
Q 109.85 270.3 108.3 270.95 107.2 271.7 107.2 272.4
L 107 276 133 276
Q 132.9 272.8 132.75 272.4 132.65 272 132.55 271.8 132.4 271.4 132.05 271.15 131.7 270.95 130 270.1 129.35 269.8 127.55 269.1
L 125.25 268.25
Q 124.65 268 124 267.25 123.7 266.95 123.65 266.8 123.55 266.55 123.5 266.5 123.4 266.35 123.2 266.4 123 266.45 122.95 266.1
L 122.95 265.75
Q 123.4 265.5 123.55 265.05
L 123.85 263.1
Q 124.1 263.15 124.3 263 124.8 262.65 125 259.95 125.05 259.65 124.9 259.65 124.75 259.7 124.75 259.65 124.7 259.45 124.85 258.55 125 257.5 124.9 256.1 124.9 255.35 124.55 254.8
L 123.85 253.7
Q 123.45 253.2 123.2 253.05 121.4 251.9 119.2 252 Z"/>
</g>

<g id="Layer0_16_FILL">
<path fill="#0099FF" stroke="none" d="
M 117.35 51.8
Q 117.15 51.4 116.85 51.15 115.75 50 114.15 50 112.5 50 111.4 51.15 110.25 52.3 110.25 53.9 110.25 54.65 110.5 55.3
L 106.5 58.4
Q 105.4 57.4 103.85 57.4 102.3 57.4 101.1 58.55 100 59.7 100 61.3 100 62.9 101.1 64.1 102.3 65.2 103.85 65.2 105.45 65.2 106.55 64.1
L 110.35 66
Q 110.25 66.45 110.25 66.95 110.25 68.6 111.4 69.7 112.5 70.85 114.15 70.85 115.75 70.85 116.85 69.7 118 68.6 118 66.95 118 65.75 117.35 64.85 117.15 64.55 116.85 64.2 115.75 63.1 114.15 63.1 112.5 63.1 111.4 64.2 111.25 64.35 111.15 64.5
L 107.55 62.65
Q 107.8 62 107.8 61.3 107.8 60.5 107.5 59.85
L 111.5 56.8
Q 112.6 57.75 114.15 57.75 115.75 57.75 116.85 56.65 118 55.5 118 53.9 118 52.7 117.35 51.8 Z"/>
</g>

<g id="Layer0_17_FILL">
<path fill="#0099FF" stroke="none" d="
M 100 138.85
Q 100.2 139.45 100.7 139.85
L 105.9 143.35 103.9 138.65
Q 103.5 137.8 103.85 136.85 104.25 135.9 105.1 135.5
L 107.1 134.7 110.95 128.95
Q 111.15 128.6 111.5 128.8 111.85 129.1 111.6 129.4
L 108.45 134.1 109.8 133.5 112.25 129.8
Q 112.45 129.55 112.8 129.75 113.15 130 112.95 130.25
L 111.15 132.9 117.55 130.15 117.15 129.75 110.5 125.25
Q 110 124.9 109.3 125.05 108.65 125.2 108.3 125.7
L 100.25 137.6
Q 99.9 138.15 100 138.85
M 123.9 139.9
Q 124.15 139.25 123.9 138.65
L 120.7 131.35
Q 120.45 130.75 119.85 130.5 119.2 130.25 118.6 130.55
L 105.45 136.25
Q 104.85 136.5 104.6 137.1 104.35 137.75 104.6 138.35
L 107.8 145.65
Q 108.05 146.3 108.65 146.55 109.25 146.75 109.9 146.5
L 123.05 140.8
Q 123.65 140.5 123.9 139.9
M 119.1 134.65
Q 119.5 134.5 119.65 134.9 119.8 135.3 119.45 135.4
L 108.45 140.15
Q 108.05 140.35 107.9 139.95 107.75 139.6 108.1 139.45
L 119.1 134.65
M 108.55 141.4
Q 108.4 141.05 108.75 140.9
L 112.4 139.3
Q 112.8 139.15 112.95 139.5 113.1 139.9 112.75 140.05
L 109.05 141.6
Q 108.7 141.8 108.55 141.4
M 120.1 136.85
L 114.95 139.05
Q 114.6 139.25 114.4 138.85 114.25 138.5 114.6 138.35
L 119.75 136.1
Q 120.1 136 120.3 136.3 120.45 136.7 120.1 136.85 Z"/>
</g>

<g id="Layer0_18_FILL">
<path fill="#0099FF" stroke="none" d="
M 117.05 3.5
Q 114.15 0.6 110 0.6 105.85 0.6 102.9 3.5 100 6.45 100 10.6 100 14.75 102.9 17.65 105.85 20.6 110 20.6 114.15 20.6 117.05 17.65 120 14.75 120 10.6 120 6.45 117.05 3.5 Z"/>
</g>

<g id="Layer0_18_MEMBER_0_FILL">
<path fill="#FFFFFF" stroke="none" d="
M 107.7 8.35
L 107.7 8.85
Q 108.35 8.9 108.65 9 108.9 9.1 108.9 9.5
L 108.85 9.65 108.85 9.8 107.4 15.1 107.3 15.85
Q 107.3 16.55 107.7 16.9 108.15 17.2 108.7 17.2 109.65 17.2 110.5 16.4 111.05 15.9 112 14.45
L 111.55 14.2 110.8 15.25
Q 110.35 15.8 110.05 15.8
L 109.8 15.7
Q 109.7 15.65 109.7 15.45
L 111.7 7.8 107.7 8.35
M 112.1 5.6
Q 112.5 5.2 112.5 4.65 112.5 4.1 112.1 3.7 111.7 3.35 111.15 3.35 110.6 3.35 110.2 3.7 109.8 4.1 109.8 4.65 109.8 5.2 110.2 5.6 110.6 6 111.15 6 111.7 6 112.1 5.6 Z"/>
</g>

<g id="Layer0_19_FILL">
<path fill="#0099FF" stroke="none" d="
M 118 82.5
Q 118 79.3 115.35 77.15 112.75 75 109 75 105.25 75 102.6 77.15 100 79.3 100 82.5 100 85.65 102.6 87.8 102.8 87.95 103 88.1
L 103 93 107.45 89.9
Q 108.2 90 109 90 112.75 90 115.35 87.8 118 85.65 118 82.5 Z"/>
</g>

<g id="Layer0_20_FILL">
<path fill="#0099FF" stroke="none" d="
M 120 35
Q 120 30.85 117.05 27.9 114.15 25 110 25 105.85 25 102.9 27.9 100 30.85 100 35 100 39.15 102.9 42.05 105.85 45 110 45 114.15 45 117.05 42.05 120 39.15 120 35
M 112.75 26.9
Q 112.3 27.85 112.3 28.05 112.3 28.3 112.7 28.6 112.9 28.8 113.25 29 113.3 29.05 113.2 29.7 113.15 30.3 113.6 30.55 114.4 30.9 115.3 29.65 115.4 29.55 115.55 29.45 115.9 29.3 116.3 29.25 117 29.95 117.45 30.8 114.55 31.4 114.95 33.6 115.25 35 116.5 36 117.3 36.6 118.3 36.95 117.65 39.65 115.55 41.5 113.4 43.3 110.65 43.55 110.35 43.15 110.4 42.8 110.45 42.3 111.6 40.9 112.3 40.05 112.65 39.4 113.4 38.2 112.8 37.9 112.75 37.85 112.65 37.8 112.3 37.6 111.75 37.15 110.95 36.6 110.7 36.4 109.9 35.95 109.35 35.9 108.65 35.95 108.3 35.9 107.55 35.85 107.4 35.45 107.35 35.2 107.4 34.7
L 106.75 34.9
Q 106.35 35.05 106.3 34.8 106.3 34.6 106.4 34.3 106.7 33.5 107.55 33.8 108.3 34.15 108.55 34.2 108.5 34.05 108.65 33.65 108.9 33.05 109.1 32.8 109.45 32.4 110 32.2 110.95 31.85 111 31.85
L 110.65 31.35
Q 111.1 31.35 111.3 31.3
L 111.15 31.6
Q 111.95 31.65 111.8 31.15 111.45 30.55 111.4 30.15 111.1 30.3 111 30.1 110.8 29.9 110.55 29.9 110.4 29.9 110.1 30.45 109.75 31.05 109.35 31.15 109.3 30.9 109 30.65 108.65 30.45 108.45 30.3 108.6 30.1 109.1 29.85
L 109.95 29.4
Q 110.1 29.4 110.15 29.1 110.15 28.85 110.05 28.75 109.85 28.6 109.6 28.7 109.3 28.8 109.4 29.05
L 108.9 29.05
Q 108.45 28.8 108.2 28.8 107.95 28.8 107.55 29.1
L 107 29.35
Q 106.65 29.5 106.3 29.3 105.9 28.95 105.7 28.8 104.9 28.45 104.5 28.4 106.85 26.4 110 26.4 111.5 26.4 112.75 26.9
M 104.75 31.3
Q 104.8 31.5 104.45 33.15 104.25 34.65 105.05 34.55
L 104.9 34.1 105.75 35.25
Q 105.95 35.4 106.45 35.55 106.95 35.7 107.15 35.85 107.75 36.2 107.95 36.4 108.05 36.5 108.05 36.65 108 36.9 107.75 37.3 107.7 37.5 107.9 38.1 108.05 38.65 108.65 39.5 109.1 40.15 109.2 41 109.35 42.9 110.05 43.55
L 110 43.55
Q 106.4 43.55 103.9 41.05 101.4 38.55 101.4 35 101.4 32.15 103.05 30 104.3 30.15 104.75 31.3 Z"/>
</g>

<g id="Layer0_21_FILL">
<path fill="#0099FF" stroke="none" d="
M 118.55 112.45
Q 118.1 112 117.5 112
L 101.5 112
Q 100.85 112 100.45 112.45 100 112.85 100 113.5 100 114.1 100.45 114.55 100.85 115 101.5 115
L 117.5 115
Q 118.1 115 118.55 114.55 119 114.1 119 113.5 119 112.85 118.55 112.45
M 118.55 108.55
Q 119 108.1 119 107.5 119 106.85 118.55 106.45 118.1 106 117.5 106
L 101.5 106
Q 100.85 106 100.45 106.45 100 106.85 100 107.5 100 108.1 100.45 108.55 100.85 109 101.5 109
L 117.5 109
Q 118.1 109 118.55 108.55
M 118.55 100.45
Q 118.1 100 117.5 100
L 101.5 100
Q 100.85 100 100.45 100.45 100 100.85 100 101.5 100 102.1 100.45 102.55 100.85 103 101.5 103
L 117.5 103
Q 118.1 103 118.55 102.55 119 102.1 119 101.5 119 100.85 118.55 100.45 Z"/>
</g>

<g id="Layer0_22_FILL">
<path fill="#FFFFFF" stroke="none" d="
M 158 23.8
Q 157.6 24.05 157.1 23.95 156.8 23.9 156.6 23.8 156.85 23.95 157.15 24 157.6 24.05 158 23.85
L 159.7 22.9 158 23.8
M 152.9 15.15
L 152.85 15.1 151.55 15.85 152.9 15.15
M 150.35 17.6
Q 150.115625 17.365625 150.1 17.15 150.1125 17.4125 150.35 17.65
L 151.5 18.75 150.35 17.6
M 155.3 8.8
L 155.2 8.85 152.65 13.45
Q 152.6021484375 13.545703125 152.6 13.65 152.603125 13.59375 152.65 13.5
L 155.3 8.8
M 159.55 3.8
Q 159.6 3.75 159.65 3.7
L 160.25 2.55 159.55 3.8
M 173.45 12.65
Q 173.7 12.5 173.9 12.55 173.75 12.45 173.4 12.6
L 170.7 14.15 173.45 12.65
M 162.5 23.95
Q 162.54921875 23.99921875 162.65 24 162.5984375 23.9984375 162.55 23.95 162.45 23.8 162.65 23.45
L 163.6 21.65 162.6 23.45
Q 162.4 23.8 162.5 23.95
M 164.35 20.25
L 164.45 20.1
Q 164.45 20 164.45 19.95
L 164.45 19.9
Q 164.4 20.3 164.05 20.5 164.25 20.4 164.35 20.25
M 163.2 13.25
Q 163.5 13.55 163.55 14
L 163.55 13.95
Q 163.5 13.55 163.35 13.4
L 164.55 14.55 160.8 10.8
Q 160.5 10.5 160.4 10 160.45 10.4 160.7 10.7
L 157.45 7.45
Q 157.7 7.15 157.85 6.9
L 157.95 6.75
Q 158 6.7 158 6.65
L 158.55 5.65 158 6.6
Q 157.8 7 157.4 7.4
L 157.4 7.45 163.2 13.25
M 166.1 17.1
Q 166.29375 16.8625 166.6 16.6
L 166.55 16.55
Q 166.2875 16.85625 166.1 17.1
M 167.2 0.15
Q 167.0375 0.075 166.85 0
L 166.8 0
Q 167.0265625 0.0755859375 167.2 0.15
M 173.4 7.6
Q 173.8 7.4 173.85 7 173.9 6.65 173.6 6.35
L 172.45 5.25 173.55 6.35
Q 173.85 6.65 173.8 7 173.75 7.4 173.4 7.6 Z"/>
</g>

<g id="Layer0_22_MEMBER_0_FILL">
<path fill="#FFC34E" fill-opacity="0.9019607843137255" stroke="none" d="
M 171.45 9.65
Q 171.4 9.2 171.1 8.9
L 165.1 2.9
Q 164.8 2.6 164.45 2.65 164.1 2.7 163.9 3.1
L 160.55 9.15
Q 160.35 9.5 160.4 10 160.5 10.5 160.8 10.8
L 166.75 16.75
Q 167.05 17.05 167.4 17 167.8 16.95 168 16.6
L 171.3 10.55
Q 171.55 10.15 171.45 9.65 Z"/>
</g>

<g id="Layer0_22_MEMBER_1_FILL">
<path fill="#FE0FA6" fill-opacity="0.9019607843137255" stroke="none" d="
M 166.6 16.6
Q 166.20625 16.95 166 17.25
L 162.65 23.45
Q 162.45 23.8 162.55 23.95 162.580078125 23.980078125 162.6 23.95 162.7703125 23.98984375 163.05 23.85
L 169.1 20.5
Q 169.45 20.3 169.9 19.9 170.3 19.45 170.5 19.1
L 173.85 13.05
Q 174.05 12.65 173.95 12.55 173.917578125 12.528515625 173.85 12.5 173.7244140625 12.4931640625 173.45 12.65
L 167.35 15.95
Q 167 16.15 166.6 16.6 Z"/>
</g>

<g id="Layer0_22_MEMBER_2_FILL">
<path fill="#FF3E3C" fill-opacity="0.9019607843137255" stroke="none" d="
M 164.45 19.9
Q 164.455078125 19.8611328125 164.45 19.8 164.451953125 19.5134765625 164.2 19.25
L 158.25 13.3
Q 157.95 13 157.45 12.9 156.95 12.85 156.6 13.05
L 150.35 16.5
Q 150.1375 16.6875 150.1 16.95
L 150.1 17
Q 150.09453125 17.03828125 150.1 17.05 150.1046875 17.3546875 150.35 17.6
L 156.35 23.6 156.6 23.8
Q 156.81875 23.91875 157.1 23.95 157.6 24.05 158 23.8
L 164.05 20.5
Q 164.4 20.3 164.45 19.9 Z"/>
</g>

<g id="Layer0_22_MEMBER_3_FILL">
<path fill="#9823C6" fill-opacity="0.9019607843137255" stroke="none" d="
M 159.55 3.75
L 161.35 0.55
Q 161.55 0.2 161.45 0.05 161.3 -0.05 160.95 0.15
L 154.9 3.45
Q 154.59921875 3.6380859375 154.3 3.9
L 154.1 4.1
Q 153.65 4.55 153.45 4.9
L 150.15 10.95
Q 149.9 11.35 150.05 11.45 150.15 11.55 150.55 11.35
L 155.2 8.8 155.25 8.75 156.6 8.05
Q 156.9875 7.8078125 157.35 7.4
L 157.4 7.4
Q 157.8 7 158 6.6
L 159.45 3.9
Q 159.5037109375 3.85234375 159.55 3.75 Z"/>
</g>

<g id="Layer0_22_MEMBER_4_FILL">
<path fill="#98D843" fill-opacity="0.9019607843137255" stroke="none" d="
M 163.4 14.9
Q 163.65 14.5 163.55 14 163.5 13.55 163.2 13.25
L 157.2 7.25
Q 156.9 6.95 156.55 7 156.2 7.05 156 7.45
L 152.65 13.5
Q 152.588671875 13.607421875 152.55 13.7 152.48671875 13.9333984375 152.5 14.15 152.494140625 14.225390625 152.5 14.25
L 152.5 14.35
Q 152.5837890625 14.76875 152.8 15.05 152.8283203125 15.0740234375 152.85 15.1 152.875390625 15.125390625 152.9 15.15
L 158.85 21.1
Q 159.15 21.4 159.5 21.35 159.9 21.3 160.1 20.95
L 163.4 14.9 Z"/>
</g>

<g id="Layer0_22_MEMBER_5_FILL">
<path fill="#26C4FF" fill-opacity="0.9019607843137255" stroke="none" d="
M 167.45 0.3
Q 167.2 0.1 166.8 0 166.35 -0.05 165.95 0.15
L 159.9 3.5 159.9 3.55
Q 159.8 3.55 159.75 3.6
L 159.7 3.65
Q 159.65 3.65 159.65 3.7 159.5 3.85 159.45 4.05 159.4 4.4 159.7 4.75
L 165.7 10.7
Q 166 11 166.45 11.05 166.95 11.15 167.35 10.95
L 173.4 7.6
Q 173.75 7.4 173.8 7 173.85 6.65 173.55 6.35
L 167.6 0.4 167.45 0.3 Z"/>
</g>

<g id="Layer0_23_FILL">
<path fill="#B2B2B2" stroke="none" d="
M 72 151.55
Q 72 150.95 71.55 150.45 71.1 150 70.45 150
L 51.55 150
Q 50.9 150 50.45 150.45 50 150.9 50 151.55
L 50 165.75
Q 50 166.4 50.45 166.85 50.9 167.3 51.55 167.3
L 70.45 167.3
Q 71.1 167.3 71.55 166.85 72 166.4 72 165.75
L 72 151.55
M 70.45 151.55
L 70.45 165.75 51.55 165.75 51.55 151.55 70.45 151.55
M 68.85 164.15
L 64.95 158.65 62.55 161.8 58.65 157.1 53.15 164.15 68.85 164.15
M 65.25 153.6
Q 64.8 153.15 64.15 153.15 63.5 153.15 63 153.6 62.55 154.05 62.55 154.7 62.55 155.4 63 155.85 63.5 156.3 64.15 156.3 64.8 156.3 65.25 155.85 65.7 155.4 65.7 154.7 65.7 154.1 65.25 153.6 Z"/>
</g>

<g id="Layer0_24_FILL">
<path fill="#0099FF" stroke="none" d="
M 120.45 150
L 101.55 150
Q 100.9 150 100.45 150.45 100 150.9 100 151.55
L 100 165.75
Q 100 166.4 100.45 166.85 100.9 167.3 101.55 167.3
L 120.45 167.3
Q 121.1 167.3 121.55 166.85 122 166.4 122 165.75
L 122 151.55
Q 122 150.95 121.55 150.45 121.1 150 120.45 150
M 120.45 165.75
L 101.55 165.75 101.55 151.55 120.45 151.55 120.45 165.75
M 112.55 161.8
L 108.65 157.1 103.15 164.15 118.85 164.15 114.95 158.65 112.55 161.8
M 114.15 156.3
Q 114.8 156.3 115.25 155.85 115.7 155.4 115.7 154.7 115.7 154.1 115.25 153.6 114.8 153.15 114.15 153.15 113.5 153.15 113 153.6 112.55 154.05 112.55 154.7 112.55 155.4 113 155.85 113.5 156.3 114.15 156.3 Z"/>
</g>

<g id="Layer0_25_FILL">
<path fill="#CCCCCC" stroke="none" d="
M 17.05 217.05
Q 20 214.15 20 210 20 205.85 17.05 202.95 14.15 200 10 200 5.9 200 2.95 202.95 0 205.85 0 210 0 214.15 2.95 217.05 5.9 220 10 220 14.15 220 17.05 217.05 Z"/>
</g>

<g id="Layer0_25_MEMBER_0_FILL">
<path fill="#FFFFFF" stroke="none" d="
M 12.15 209.15
Q 12 208.6 11.75 208.25 11.1 207.35 10.05 207 9.6 206.9 9.2 206.9
L 5.6 206.9
Q 4.35 206.95 3.5 207.85 2.55 208.75 2.55 210 2.55 211.3 3.5 212.2 4.35 213.1 5.6 213.1
L 8.15 213.1
Q 8.25 213.1 8.25 213 8.3 213 8.25 212.95 7.75 212.5 7.45 211.85 7.4 211.8 7.35 211.8
L 5.6 211.8
Q 4.95 211.8 4.4 211.25 3.9 210.75 3.95 210 3.9 209.25 4.4 208.75 4.95 208.2 5.65 208.25
L 9.2 208.2
Q 9.6 208.2 10.05 208.5 10.5 208.7 10.7 209.15 10.95 209.5 11 210 10.95 210.5 10.8 210.75
L 10.8 210.85 10.9 210.9 12.05 210.9
Q 12.15 210.9 12.2 210.85 12.3 210.4 12.3 210 12.3 209.55 12.15 209.15
M 12 206.9
Q 11.95 206.9 11.9 207 11.85 207 11.95 207.1 12.4 207.55 12.7 208.15 12.75 208.2 12.85 208.25
L 14.5 208.25
Q 15.25 208.2 15.75 208.75 16.25 209.25 16.25 210 16.25 210.75 15.75 211.25 15.25 211.8 14.5 211.8
L 10.95 211.8
Q 10.5 211.8 10.05 211.5 9.65 211.35 9.45 210.85 9.2 210.5 9.2 210 9.2 209.55 9.35 209.25
L 9.35 209.15 8.05 209.15
Q 8 209.15 7.95 209.2 7.9 209.65 7.9 210 7.9 210.45 8 210.85 8.15 211.45 8.45 211.8 9 212.65 10.05 213 10.5 213.1 10.95 213.1
L 14.5 213.1
Q 15.75 213.1 16.65 212.2 17.55 211.3 17.6 210 17.55 208.75 16.65 207.85 15.8 206.95 14.5 206.9
L 12 206.9 Z"/>
</g>

<g id="Layer0_26_MEMBER_0_FILL">
<path fill="#FFFFFF" stroke="none" d="
M 17.05 227.75
Q 15.7 226.45 13.9 225.75 12.05 225 10 225 7.95 225 6.1 225.75 4.3 226.45 2.9 227.75 1.55 229 0.8 230.7 0 232.4 0 234.3 0 236.2 0.75 237.9 1.5 239.55 2.85 240.8 4.2 242.05 5.95 242.7 7.8 243.4 9.8 243.4 11.05 243.4 11.4 243.4 12.25 243.35 12.85 243.2 14 244.4 14.45 244.7 15.75 245.65 17.3 245.25 17.75 245.15 18.2 244.9
L 18.55 244.7
Q 18.2 244.7 17.8 244.5 16.95 244.15 16.5 243.2 16.2 242.55 16.2 241.6 17.95 240.3 18.95 238.4 20 236.45 20 234.3 20 232.4 19.2 230.7 18.45 229 17.05 227.75 Z"/>
</g>

<g id="Layer0_26_MEMBER_1_MEMBER_0_MEMBER_0_FILL">
<path fill="#666666" stroke="none" d="
M 8.65 238.7
Q 8.65 239.25 9.05 239.6 9.45 240 9.95 240 10.5 240 10.9 239.6 11.3 239.25 11.3 238.7 11.3 238.15 10.9 237.75 10.5 237.35 9.95 237.35 9.45 237.35 9.05 237.75 8.65 238.15 8.65 238.7
M 11.1 234.4
Q 11.25 234.25 11.55 234.05 11.7 233.95 12.05 233.7 12.7 233.2 13 232.75 13.4 232.15 13.4 231.35 13.4 230.2 12.5 229.45 11.55 228.75 10 228.75 8.95 228.75 8 229.15 7.05 229.55 6.4 230.35
L 7.75 231.85
Q 8.15 231.35 8.65 231.1 9.15 230.8 9.75 230.8 10.4 230.8 10.75 231.1 11.05 231.35 11.05 231.75 11.05 232.1 10.7 232.45 10.55 232.6 10.3 232.8 10 233 9.85 233.1 9.3 233.5 9 233.85 8.65 234.4 8.65 235.05 8.65 235.45 8.8 235.85 8.9 236.2 9.2 236.5
L 11 235.95
Q 10.85 235.85 10.75 235.65 10.65 235.5 10.65 235.3 10.65 234.85 11.1 234.4 Z"/>
</g>
</defs>

<g transform="matrix( 1, 0, 0, 1, 0,0) ">
<use xlink:href="#Layer0_0_FILL"/>
</g>

<g transform="matrix( 1, 0, 0, 1, 0,0) ">
<use xlink:href="#Layer0_1_FILL"/>
</g>

<g transform="matrix( 1, 0, 0, 1, 0,0) ">
<use xlink:href="#Layer0_2_FILL"/>
</g>

<g transform="matrix( 1, 0, 0, 1, 0,0) ">
<use xlink:href="#Layer0_3_FILL"/>
</g>

<g transform="matrix( 1, 0, 0, 1, 0,0) ">
<use xlink:href="#Layer0_3_MEMBER_0_FILL"/>
</g>

<g transform="matrix( 1, 0, 0, 1, 0,0) ">
<use xlink:href="#Layer0_3_MEMBER_1_MEMBER_0_FILL"/>
</g>

<g transform="matrix( 1, 0, 0, 1, 0,0) ">
<use xlink:href="#Layer0_4_FILL"/>
</g>

<g transform="matrix( 1, 0, 0, 1, 0,0) ">
<use xlink:href="#Layer0_5_FILL"/>
</g>

<g transform="matrix( 1, 0, 0, 1, 0,0) ">
<use xlink:href="#Layer0_6_FILL"/>
</g>

<g transform="matrix( 1, 0, 0, 1, 0,0) ">
<use xlink:href="#Layer0_7_FILL"/>
</g>

<g transform="matrix( 1, 0, 0, 1, 0,0) ">
<use xlink:href="#Layer0_8_MEMBER_0_FILL"/>
</g>

<g transform="matrix( 1, 0, 0, 1, 0,0) ">
<use xlink:href="#Layer0_8_MEMBER_0_MEMBER_0_MEMBER_0_FILL"/>
</g>

<g transform="matrix( 1, 0, 0, 1, 0,0) ">
<use xlink:href="#Layer0_9_FILL"/>
</g>

<g transform="matrix( 1, 0, 0, 1, 0,0) ">
<use xlink:href="#Layer0_10_FILL"/>
</g>

<g transform="matrix( 1, 0, 0, 1, 0,0) ">
<use xlink:href="#Layer0_11_FILL"/>
</g>

<g transform="matrix( 1, 0, 0, 1, -1,-209) ">
<use xlink:href="#Layer0_12_MEMBER_0_FILL"/>
</g>

<g transform="matrix( 1, 0, 0, 1, -1,-209) ">
<use xlink:href="#Layer0_12_MEMBER_1_FILL"/>
</g>

<g transform="matrix( 1, 0, 0, 1, -805.25,-925) ">
<use xlink:href="#Layer0_13_MEMBER_0_FILL"/>
</g>

<g transform="matrix( 1, 0, 0, 1, 0,0) ">
<use xlink:href="#Layer0_14_FILL"/>
</g>

<g transform="matrix( 0.576934814453125, 0, 0, 0.5749969482421875, 138.25,-144.9) ">
<use xlink:href="#Layer0_15_FILL"/>
</g>

<g transform="matrix( 1, 0, 0, 1, 0,0) ">
<use xlink:href="#Layer0_16_FILL"/>
</g>

<g transform="matrix( 1, 0, 0, 1, 0,0) ">
<use xlink:href="#Layer0_17_FILL"/>
</g>

<g transform="matrix( 1, 0, 0, 1, 0,0) ">
<use xlink:href="#Layer0_18_FILL"/>
</g>

<g transform="matrix( 1, 0, 0, 1, 0,0) ">
<use xlink:href="#Layer0_18_MEMBER_0_FILL"/>
</g>

<g transform="matrix( 1, 0, 0, 1, 0,0) ">
<use xlink:href="#Layer0_19_FILL"/>
</g>

<g transform="matrix( 1, 0, 0, 1, 0,0) ">
<use xlink:href="#Layer0_20_FILL"/>
</g>

<g transform="matrix( 1, 0, 0, 1, 0,0) ">
<use xlink:href="#Layer0_21_FILL"/>
</g>

<g transform="matrix( 1, 0, 0, 1, 0,0) ">
<use xlink:href="#Layer0_22_FILL"/>
</g>

<g transform="matrix( 1, 0, 0, 1, 0,0) ">
<use xlink:href="#Layer0_22_MEMBER_0_FILL"/>
</g>

<g transform="matrix( 1, 0, 0, 1, 0,0) ">
<use xlink:href="#Layer0_22_MEMBER_1_FILL"/>
</g>

<g transform="matrix( 1, 0, 0, 1, 0,0) ">
<use xlink:href="#Layer0_22_MEMBER_2_FILL"/>
</g>

<g transform="matrix( 1, 0, 0, 1, 0,0) ">
<use xlink:href="#Layer0_22_MEMBER_3_FILL"/>
</g>

<g transform="matrix( 1, 0, 0, 1, 0,0) ">
<use xlink:href="#Layer0_22_MEMBER_4_FILL"/>
</g>

<g transform="matrix( 1, 0, 0, 1, 0,0) ">
<use xlink:href="#Layer0_22_MEMBER_5_FILL"/>
</g>

<g transform="matrix( 1, 0, 0, 1, 0,0) ">
<use xlink:href="#Layer0_23_FILL"/>
</g>

<g transform="matrix( 1, 0, 0, 1, 0,0) ">
<use xlink:href="#Layer0_24_FILL"/>
</g>

<g transform="matrix( 1, 0, 0, 1, 0,0) ">
<use xlink:href="#Layer0_25_FILL"/>
</g>

<g transform="matrix( 1, 0, 0, 1, 0,0) ">
<use xlink:href="#Layer0_25_MEMBER_0_FILL"/>
</g>

<g transform="matrix( 0.8000030517578125, 0, 0, 0.798370361328125, 0,45.35) ">
<use xlink:href="#Layer0_26_MEMBER_0_FILL"/>
</g>

<g transform="matrix( 0.8000030517578125, 0, 0, 0.798370361328125, 0,45.35) ">
<use xlink:href="#Layer0_26_MEMBER_1_MEMBER_0_MEMBER_0_FILL"/>
</g>
</svg>
